<svg width="10" height="8" viewBox="0 0 10 8" fill="none" xmlns="http://www.w3.org/2000/svg">
<path d="M9.00504 0.000449917C8.75388 0.0086975 8.51543 0.126752 8.34017 0.329621C6.8304 2.03446 5.31901 3.73242 3.80698 5.43747L1.58572 3.34892C1.38863 3.16432 1.13457 3.07541 0.879344 3.10169C0.624114 3.12796 0.38857 3.26729 0.224428 3.48907C0.0602865 3.71086 -0.0190364 3.99698 0.00387616 4.2846C0.0267887 4.57223 0.150064 4.83785 0.346635 5.02315L3.24788 7.74733C3.43355 7.92171 3.67044 8.01144 3.9119 7.99883C4.15335 7.98623 4.38187 7.87221 4.55244 7.67923C6.27023 5.73952 7.98947 3.81067 9.7102 1.86765C9.84899 1.71421 9.94351 1.5172 9.98143 1.30232C10.0193 1.08744 9.99891 0.864665 9.92278 0.663072C9.84664 0.461478 9.71835 0.290421 9.55464 0.172219C9.39093 0.054016 9.1994 -0.00584375 9.00504 0.000449917Z" fill="#14935A"/>
</svg>
