<!-- Generated by IcoMoon.io -->
<svg version="1.1" xmlns="http://www.w3.org/2000/svg" width="1024" height="1024" viewBox="0 0 1024 1024">
<title>ecomm-select-bronxzoo</title>
<path fill="#008484" d="M1024 512c0 282.77-229.23 512-512 512s-512-229.23-512-512c0-282.77 229.23-512 512-512s512 229.23 512 512z"></path>
<path fill="#fff" d="M273.067 384c-12.8 12.8-12.8 38.4 0 51.2l204.8 204.8c7.002 7.302 16.838 11.84 27.733 11.84s20.731-4.538 27.72-11.827l0.013-0.014 204.8-204.8c9.43-7.077 15.466-18.233 15.466-30.799 0-21.208-17.192-38.4-38.4-38.4-13.646 0-25.629 7.118-32.44 17.843l-0.093 0.156-170.667 170.667-183.467-170.667c-7.002-7.302-16.838-11.84-27.733-11.84s-20.731 4.538-27.72 11.827l-0.013 0.014z"></path>
</svg>
